<?xml version="1.0" encoding="UTF-8"?>
<svg width="24px" height="24px" viewBox="0 0 24 24" version="1.1" xmlns="http://www.w3.org/2000/svg" xmlns:xlink="http://www.w3.org/1999/xlink">
    <title>BuddyIcon</title>
    <g id="Symbols" stroke="none" stroke-width="1" fill="none" fill-rule="evenodd">
        <g id="BuddyIcon" fill="#193251">
            <path d="M12,14.0002464 C14.6887547,14.0002464 16.8818181,16.1225531 16.9953805,18.7833568 L17,19.0002464 L17,21.0002464 C17,21.5525312 16.5522847,22.0002464 16,22.0002464 C15.4871642,22.0002464 15.0644928,21.6142062 15.0067277,21.1168676 L15,21.0002464 L15,19.0002464 C15,17.4025655 13.75108,16.0965856 12.1762728,16.0053391 L12,16.0002464 L5,16.0002464 C3.40231912,16.0002464 2.09633912,17.2491664 2.00509269,18.8239736 L2,19.0002464 L2,21.0002464 C2,21.5525312 1.55228475,22.0002464 1,22.0002464 C0.487164161,22.0002464 0.0644928393,21.6142062 0.00672773133,21.1168676 L0,21.0002464 L0,19.0002464 C0,16.3114917 2.12230671,14.1184283 4.78311038,14.0048659 L5,14.0002464 L12,14.0002464 Z M20.2551795,14.0333527 C22.3884951,14.5963705 23.8951492,16.5080011 23.9947479,18.7255078 L24,18.9559534 L24,21.0002464 C24,21.5525312 23.5522847,22.0002464 23,22.0002464 C22.4871642,22.0002464 22.0644928,21.6142062 22.0067277,21.1168676 L22,21.0002464 L22.0000003,18.9566832 C21.9989693,17.5439601 21.0679399,16.3163335 19.7448205,15.9671401 C19.2108199,15.8262084 18.8921746,15.2790676 19.0331063,14.745067 C19.174038,14.2110663 19.7211788,13.892421 20.2551795,14.0333527 Z M8,2.00024643 C10.7614237,2.00024643 13,4.23882268 13,7.00024643 C13,9.76167018 10.7614237,12.0002464 8,12.0002464 C5.23857625,12.0002464 3,9.76167018 3,7.00024643 C3,4.23882268 5.23857625,2.00024643 8,2.00024643 Z M16.2561499,2.03360937 C18.4649415,2.61891883 20,4.66566353 20,7.00024643 C20,9.33482934 18.4649415,11.381574 16.2561499,11.9668835 C15.722291,12.1083512 15.1748306,11.7902553 15.0333629,11.2563964 C14.8918952,10.7225375 15.2099912,10.1750771 15.7438501,10.0336094 C17.0656577,9.68334249 18,8.43755277 18,7.00024643 C18,5.56294009 17.0656577,4.31715037 15.7438501,3.96688349 C15.2099912,3.82541579 14.8918952,3.2779554 15.0333629,2.74409649 C15.1748306,2.21023759 15.722291,1.89214167 16.2561499,2.03360937 Z M8,4.00024643 C6.34314575,4.00024643 5,5.34339218 5,7.00024643 C5,8.65710068 6.34314575,10.0002464 8,10.0002464 C9.65685425,10.0002464 11,8.65710068 11,7.00024643 C11,5.34339218 9.65685425,4.00024643 8,4.00024643 Z"></path>
        </g>
    </g>
</svg>