<?xml version="1.0" encoding="UTF-8"?>
<svg width="24px" height="24px" viewBox="0 0 24 24" version="1.1" xmlns="http://www.w3.org/2000/svg" xmlns:xlink="http://www.w3.org/1999/xlink">
    <title>DashboardIcon</title>
    <g id="Symbols" stroke="none" stroke-width="1" fill="none" fill-rule="evenodd">
        <g id="DashboardIcon" fill="#193251">
            <path d="M10.5,9.75 C11.5543618,9.75 12.4181651,10.5658778 12.4945143,11.6007377 L12.5,11.75 L12.5,20.25 C12.5,21.3043618 11.6841222,22.1681651 10.6492623,22.2445143 L10.5,22.25 L3.5,22.25 C2.4456382,22.25 1.58183488,21.4341222 1.50548574,20.3992623 L1.5,20.25 L1.5,11.75 C1.5,10.6956382 2.31587779,9.83183488 3.35073766,9.75548574 L3.5,9.75 L10.5,9.75 Z M20.5,15.75 C21.5543618,15.75 22.4181651,16.5658778 22.4945143,17.6007377 L22.5,17.75 L22.5,20.25 C22.5,21.3043618 21.6841222,22.1681651 20.6492623,22.2445143 L20.5,22.25 L16.5,22.25 C15.4456382,22.25 14.5818349,21.4341222 14.5054857,20.3992623 L14.5,20.25 L14.5,17.75 C14.5,16.6956382 15.3158778,15.8318349 16.3507377,15.7554857 L16.5,15.75 L20.5,15.75 Z M10.5,11.75 L3.5,11.75 L3.5,20.25 L10.5,20.25 L10.5,11.75 Z M20.5,17.75 L16.5,17.75 L16.5,20.25 L20.5,20.25 L20.5,17.75 Z M20.5,1.75 C21.5543618,1.75 22.4181651,2.56587779 22.4945143,3.60073766 L22.5,3.75 L22.5,11.75 C22.5,12.8043618 21.6841222,13.6681651 20.6492623,13.7445143 L20.5,13.75 L16.5,13.75 C15.4456382,13.75 14.5818349,12.9341222 14.5054857,11.8992623 L14.5,11.75 L14.5,3.75 C14.5,2.6956382 15.3158778,1.83183488 16.3507377,1.75548574 L16.5,1.75 L20.5,1.75 Z M20.5,3.75 L16.5,3.75 L16.5,11.75 L20.5,11.75 L20.5,3.75 Z M10.5,1.75 C11.5543618,1.75 12.4181651,2.56587779 12.4945143,3.60073766 L12.5,3.75 L12.5,5.75 C12.5,6.8043618 11.6841222,7.66816512 10.6492623,7.74451426 L10.5,7.75 L3.5,7.75 C2.4456382,7.75 1.58183488,6.93412221 1.50548574,5.89926234 L1.5,5.75 L1.5,3.75 C1.5,2.6956382 2.31587779,1.83183488 3.35073766,1.75548574 L3.5,1.75 L10.5,1.75 Z M10.5,3.75 L3.5,3.75 L3.5,5.75 L10.5,5.75 L10.5,3.75 Z"></path>
        </g>
    </g>
</svg>