<?xml version="1.0" encoding="UTF-8"?>
<svg width="24px" height="24px" viewBox="0 0 24 24" version="1.1" xmlns="http://www.w3.org/2000/svg" xmlns:xlink="http://www.w3.org/1999/xlink">
    <title>JournalIcon</title>
    <g id="Symbols" stroke="none" stroke-width="1" fill="none" fill-rule="evenodd">
        <g id="JournalIcon" fill="#193251">
            <path d="M19.0714286,1 C20.6691095,1 21.9750895,2.24891996 22.0663359,3.82372721 L22.0714286,4 L22.0714286,20 C22.0714286,21.5976809 20.8225086,22.9036609 19.2477014,22.9949073 L19.0714286,23 L7.07142857,23 C5.47374769,23 4.16776769,21.75108 4.07652126,20.1762728 L4.07142857,20 L4.071,19 L2.5,19 C1.94771525,19 1.5,18.5522847 1.5,18 C1.5,17.4871642 1.88604019,17.0644928 2.38337887,17.0067277 L2.5,17 L4.071,17 L4.071,15 L2.5,15 C1.94771525,15 1.5,14.5522847 1.5,14 C1.5,13.4871642 1.88604019,13.0644928 2.38337887,13.0067277 L2.5,13 L4.071,13 L4.071,11 L2.5,11 C1.94771525,11 1.5,10.5522847 1.5,10 C1.5,9.48716416 1.88604019,9.06449284 2.38337887,9.00672773 L2.5,9 L4.071,9 L4.071,7 L2.5,7 C1.94771525,7 1.5,6.55228475 1.5,6 C1.5,5.48716416 1.88604019,5.06449284 2.38337887,5.00672773 L2.5,5 L4.071,5 L4.07142857,4 C4.07142857,2.40231912 5.32034854,1.09633912 6.89515578,1.00509269 L7.07142857,1 L19.0714286,1 Z M19.0714286,3 L7.07142857,3 C6.55859273,3 6.13592141,3.38604019 6.0781563,3.88337887 L6.07142857,4 L6.071,5 L7.64285714,5 C8.19514189,5 8.64285714,5.44771525 8.64285714,6 C8.64285714,6.51283584 8.25681695,6.93550716 7.75947827,6.99327227 L7.64285714,7 L6.071,7 L6.071,9 L7.64285714,9 C8.19514189,9 8.64285714,9.44771525 8.64285714,10 C8.64285714,10.5128358 8.25681695,10.9355072 7.75947827,10.9932723 L7.64285714,11 L6.071,11 L6.071,13 L7.64285714,13 C8.19514189,13 8.64285714,13.4477153 8.64285714,14 C8.64285714,14.5128358 8.25681695,14.9355072 7.75947827,14.9932723 L7.64285714,15 L6.071,15 L6.071,17 L7.64285714,17 C8.19514189,17 8.64285714,17.4477153 8.64285714,18 C8.64285714,18.5128358 8.25681695,18.9355072 7.75947827,18.9932723 L7.64285714,19 L6.071,19 L6.07142857,20 C6.07142857,20.5128358 6.45746876,20.9355072 6.95480745,20.9932723 L7.07142857,21 L19.0714286,21 C19.5842644,21 20.0069357,20.6139598 20.0647008,20.1166211 L20.0714286,20 L20.0714286,4 C20.0714286,3.48716416 19.6853884,3.06449284 19.1880497,3.00672773 L19.0714286,3 Z"></path>
        </g>
    </g>
</svg>