<?xml version="1.0" encoding="UTF-8"?>
<svg width="24px" height="24px" viewBox="0 0 24 24" version="1.1" xmlns="http://www.w3.org/2000/svg" xmlns:xlink="http://www.w3.org/1999/xlink">
    <title>TeamIcon</title>
    <g id="Symbols" stroke="none" stroke-width="1" fill="none" fill-rule="evenodd">
        <g id="TeamIcon" fill="#193251">
            <path d="M15.7058824,14.0002464 C18.5527991,14.0002464 20.8748662,16.1225531 20.9951088,18.7833568 L21,19.0002464 L21,21.0002464 C21,21.5525312 20.5259486,22.0002464 19.9411765,22.0002464 C19.3981738,22.0002464 18.9506395,21.6142062 18.8894764,21.1168676 L18.8823529,21.0002464 L18.8823529,19.0002464 C18.8823529,17.4025655 17.5599671,16.0965856 15.8925241,16.0053391 L15.7058824,16.0002464 L8.29411765,16.0002464 C6.60245554,16.0002464 5.21965319,17.2491664 5.12303932,18.8239736 L5.11764706,19.0002464 L5.11764706,21.0002464 C5.11764706,21.5525312 4.64359562,22.0002464 4.05882353,22.0002464 C3.51582088,22.0002464 3.06828654,21.6142062 3.00712348,21.1168676 L3,21.0002464 L3,19.0002464 C3,16.3114917 5.24714828,14.1184283 8.06446981,14.0048659 L8.29411765,14.0002464 L15.7058824,14.0002464 Z M0.744820527,14.0333527 C1.27882117,13.892421 1.82596197,14.2110663 1.9668937,14.745067 C2.10782544,15.2790676 1.78918012,15.8262084 1.25517947,15.9671401 C-0.0104129452,16.3011512 -0.917269061,17.4388705 -0.994635914,18.7735216 L-1,18.9566832 L-1,21.0002464 L-1.00672773,21.1168676 C-1.06449284,21.6142062 -1.48716416,22.0002464 -2,22.0002464 C-2.51283584,22.0002464 -2.93550716,21.6142062 -2.99327227,21.1168676 L-3,21.0002464 L-3,18.9559534 L-2.99474791,18.7255078 C-2.89514921,16.5080011 -1.38849508,14.5963705 0.744820527,14.0333527 Z M23.2554252,14.0333527 C25.3887409,14.5963705 26.895395,16.5080011 26.9949937,18.7255078 L27.0002458,18.9559534 L27.0002458,21.0002464 C27.0002458,21.5525312 26.5525305,22.0002464 26.0002458,22.0002464 C25.4874099,22.0002464 25.0647386,21.6142062 25.0069735,21.1168676 L25.0002458,21.0002464 L25.000246,18.9566832 C24.9992151,17.5439601 24.0681856,16.3163335 22.7450663,15.9671401 C22.2110657,15.8262084 21.8924203,15.2790676 22.0333521,14.745067 C22.1742838,14.2110663 22.7214246,13.892421 23.2554252,14.0333527 Z M12.0002458,2.00024643 C14.7616695,2.00024643 17.0002458,4.23882268 17.0002458,7.00024643 C17.0002458,9.76167018 14.7616695,12.0002464 12.0002458,12.0002464 C9.23882203,12.0002464 7.00024578,9.76167018 7.00024578,7.00024643 C7.00024578,4.23882268 9.23882203,2.00024643 12.0002458,2.00024643 Z M4.74384941,2.03360937 C5.27770832,1.89214167 5.8251687,2.21023759 5.96663641,2.74409649 C6.10810411,3.2779554 5.79000819,3.82541579 5.25614928,3.96688349 C3.93434163,4.31715037 2.99999934,5.56294009 2.99999934,7.00024643 C2.99999934,8.43755277 3.93434163,9.68334249 5.25614928,10.0336094 C5.79000819,10.1750771 6.10810411,10.7225375 5.96663641,11.2563964 C5.8251687,11.7902553 5.27770832,12.1083512 4.74384941,11.9668835 C2.53505787,11.381574 0.999999345,9.33482934 0.999999345,7.00024643 C0.999999345,4.66566353 2.53505787,2.61891883 4.74384941,2.03360937 Z M19.2563957,2.03360937 C21.4651873,2.61891883 23.0002458,4.66566353 23.0002458,7.00024643 C23.0002458,9.33482934 21.4651873,11.381574 19.2563957,11.9668835 C18.7225368,12.1083512 18.1750764,11.7902553 18.0336087,11.2563964 C17.892141,10.7225375 18.2102369,10.1750771 18.7440958,10.0336094 C20.0659035,9.68334249 21.0002458,8.43755277 21.0002458,7.00024643 C21.0002458,5.56294009 20.0659035,4.31715037 18.7440958,3.96688349 C18.2102369,3.82541579 17.892141,3.2779554 18.0336087,2.74409649 C18.1750764,2.21023759 18.7225368,1.89214167 19.2563957,2.03360937 Z M12.0002458,4.00024643 C10.3433915,4.00024643 9.00024578,5.34339218 9.00024578,7.00024643 C9.00024578,8.65710068 10.3433915,10.0002464 12.0002458,10.0002464 C13.6571,10.0002464 15.0002458,8.65710068 15.0002458,7.00024643 C15.0002458,5.34339218 13.6571,4.00024643 12.0002458,4.00024643 Z"></path>
        </g>
    </g>
</svg>